<?xml version="1.0" standalone="no"?>
<!DOCTYPE svg PUBLIC "-//W3C//DTD SVG 20010904//EN"
 "http://www.w3.org/TR/2001/REC-SVG-20010904/DTD/svg10.dtd">
<svg version="1.0" xmlns="http://www.w3.org/2000/svg"
 width="400.000000pt" height="400.000000pt" viewBox="0 0 400.000000 400.000000"
 preserveAspectRatio="xMidYMid meet">
<metadata>
Created by potrace 1.14, written by Peter Selinger 2001-2017
</metadata>
<g transform="translate(0.000000,400.000000) scale(0.100000,-0.100000)"
fill="#000000" stroke="none">
<path d="M1962 3828 c-18 -18 -14 -46 7 -58 31 -16 69 -12 92 11 20 20 20 22
3 40 -20 22 -83 26 -102 7z"/>
<path d="M1813 3673 c-25 -10 -14 -33 16 -33 26 0 50 15 40 24 -9 8 -45 14
-56 9z"/>
<path d="M2173 3673 c-28 -11 -13 -33 22 -33 24 0 35 5 35 15 0 8 -4 15 -9 15
-5 0 -15 2 -23 4 -7 3 -19 2 -25 -1z"/>
<path d="M1618 3619 c-21 -12 -24 -59 -5 -59 8 0 20 11 27 25 16 30 4 49 -22
34z"/>
<path d="M2373 3615 c-5 -16 22 -55 39 -55 12 0 10 44 -4 58 -16 16 -27 15
-35 -3z"/>
<path d="M2000 3332 c0 -6 -9 -14 -20 -17 -27 -9 -25 -19 7 -40 24 -16 29 -16
52 -2 42 26 40 30 -31 65 -5 2 -8 -1 -8 -6z"/>
<path d="M1729 3270 l-24 -19 42 -1 c51 0 73 8 73 26 0 21 -64 17 -91 -6z"/>
<path d="M2200 3275 c0 -8 12 -17 28 -21 15 -3 34 -8 42 -10 8 -2 21 0 28 5
11 6 10 11 -3 25 -21 21 -95 22 -95 1z"/>
<path d="M1270 2975 c0 -3 30 -44 68 -91 37 -48 85 -110 106 -138 21 -28 42
-53 46 -56 3 -3 26 -32 51 -65 24 -33 46 -62 49 -65 3 -3 59 -75 124 -160 65
-85 125 -160 132 -166 8 -6 14 -14 14 -18 0 -9 80 -110 91 -114 5 -2 9 -8 9
-14 0 -10 80 -111 93 -116 4 -2 7 -10 7 -17 0 -8 6 -18 14 -22 7 -4 24 -24 37
-43 13 -20 31 -44 39 -53 8 -10 20 -23 25 -30 6 -7 24 -30 40 -52 17 -22 35
-45 40 -52 6 -6 20 -24 32 -40 34 -44 82 -107 91 -118 12 -15 172 -221 216
-279 22 -28 44 -56 50 -63 19 -22 31 -37 55 -73 13 -19 29 -39 36 -45 6 -5 31
-37 55 -70 25 -33 47 -62 50 -65 3 -3 61 -77 129 -165 67 -88 129 -164 137
-168 12 -7 14 158 14 1178 l0 1185 -925 0 c-509 0 -925 -2 -925 -5z m1272
-132 c10 -9 18 -24 18 -35 0 -11 7 -18 18 -18 11 0 30 -9 42 -20 l24 -21 -27
-25 -28 -25 3 -152 3 -152 117 -3 c114 -3 117 -2 141 23 l24 26 16 -25 c10
-14 17 -32 17 -41 0 -8 8 -15 17 -15 22 0 53 -29 53 -50 0 -10 -14 -24 -31
-32 -16 -8 -38 -30 -47 -48 -21 -41 -41 -50 -49 -21 -7 27 -42 33 -163 29
l-95 -3 -3 -211 -2 -212 28 -24 c26 -21 27 -25 13 -38 -8 -8 -26 -17 -41 -20
-16 -3 -26 -13 -28 -27 -4 -27 -35 -55 -54 -48 -8 3 -21 20 -29 38 -8 18 -23
34 -34 36 -11 1 -28 10 -37 18 -16 14 -15 16 7 37 24 21 25 23 27 234 3 249
18 226 -141 220 -92 -3 -102 -5 -117 -26 -15 -22 -17 -22 -34 -7 -10 9 -21 26
-24 38 -3 12 -19 28 -36 35 -21 10 -30 21 -30 37 0 16 9 27 30 37 17 7 33 23
36 35 3 12 14 29 23 37 16 15 19 14 39 -9 21 -24 27 -25 137 -25 85 0 115 3
115 13 1 6 1 77 0 157 0 142 -1 145 -25 166 l-25 20 23 22 c13 12 33 22 45 22
15 0 22 6 22 19 0 18 24 51 37 51 4 0 15 -7 25 -17z"/>
<path d="M910 1448 c0 -1034 1 -1085 19 -1123 24 -51 74 -97 129 -119 37 -14
92 -16 401 -16 346 0 361 -1 417 -22 32 -12 74 -38 95 -58 l37 -35 32 33 c18
19 53 43 79 55 43 20 64 22 324 25 161 2 277 7 277 12 0 6 -30 49 -67 96 -38
48 -92 118 -121 156 -29 39 -58 76 -65 83 -6 7 -21 25 -32 41 -11 15 -25 32
-30 38 -6 6 -31 38 -55 71 -25 33 -47 62 -51 65 -3 3 -25 32 -50 65 -24 33
-46 62 -49 65 -3 3 -59 75 -124 160 -65 85 -125 160 -132 166 -8 6 -14 15 -14
20 0 5 -8 17 -17 25 -10 9 -25 26 -33 39 -8 13 -22 31 -31 40 -9 10 -36 44
-60 76 -24 33 -48 64 -54 71 -5 6 -20 24 -32 40 -36 47 -82 107 -91 118 -40
49 -285 367 -315 407 -21 29 -41 55 -45 58 -5 3 -28 32 -52 65 -24 33 -46 62
-50 65 -3 3 -26 32 -51 65 -24 33 -46 62 -49 65 -3 3 -34 42 -69 88 -35 45
-65 82 -67 82 -2 0 -4 -487 -4 -1082z m220 496 c14 -35 12 -54 -2 -48 -20 8
-50 53 -43 64 11 19 35 10 45 -16z m130 -74 c33 -9 110 -70 110 -86 0 -4 8
-16 17 -26 14 -16 15 -23 5 -39 -7 -10 -8 -19 -3 -19 33 0 58 -214 26 -226 -7
-3 -22 -27 -31 -52 -17 -46 -88 -142 -104 -142 -5 0 -12 21 -16 47 -4 26 -13
62 -21 80 -14 34 -33 44 -33 18 0 -21 -15 -19 -43 8 -36 33 -67 88 -67 120 0
21 -4 27 -17 25 -40 -7 -56 127 -24 190 46 89 117 126 201 102z m-50 -893 l0
-29 -26 31 c-22 27 -24 34 -13 47 12 14 14 14 26 -2 7 -10 13 -31 13 -47z
m659 26 c16 -58 14 -61 -19 -23 -22 25 -26 37 -18 47 17 21 26 15 37 -24z
m-499 -88 c64 -40 128 -124 102 -133 -7 -2 -1 -21 14 -49 34 -66 33 -213 -2
-213 -8 0 -14 -7 -14 -15 0 -35 -91 -165 -116 -165 -6 0 -14 26 -17 60 -4 33
-12 69 -19 79 -11 18 -14 19 -29 5 -15 -13 -20 -11 -52 23 -20 20 -44 58 -53
84 -12 31 -22 45 -31 42 -7 -3 -13 -3 -13 -1 0 2 -5 30 -11 62 -31 172 111
303 241 221z m651 10 c36 -19 91 -72 108 -103 7 -12 9 -32 6 -43 -4 -13 0 -28
11 -40 12 -13 18 -42 22 -93 5 -86 -2 -126 -23 -126 -9 0 -15 -9 -15 -21 0
-36 -86 -159 -111 -159 -4 0 -12 31 -19 69 -13 76 -31 105 -49 74 -9 -17 -12
-16 -42 12 -36 34 -68 98 -69 135 0 20 -2 22 -10 10 -7 -12 -12 -12 -22 -2 -9
9 -13 43 -13 105 0 88 1 93 30 126 61 69 131 89 196 56z"/>
<path d="M1183 1822 c19 -20 18 -21 -7 -55 -28 -36 -45 -97 -28 -97 6 0 13 12
17 28 3 15 14 37 25 50 20 24 50 30 50 8 0 -7 7 -19 15 -26 16 -13 21 -56 7
-62 -34 -14 -80 -158 -50 -158 11 0 17 14 20 44 5 44 34 95 54 96 15 0 24 -92
17 -170 -5 -51 -3 -62 8 -58 10 3 15 30 19 94 l5 89 13 -44 c8 -24 17 -40 22
-35 14 15 -3 72 -31 102 -14 15 -31 42 -37 60 -6 18 -21 46 -33 63 -26 37 -20
46 15 24 14 -9 31 -15 37 -13 16 5 -48 54 -81 61 -14 3 -36 9 -50 13 -25 7
-25 7 -7 -14z"/>
<path d="M1260 899 c0 -8 5 -20 12 -27 9 -9 7 -17 -8 -34 -32 -37 -56 -95 -41
-98 5 0 19 18 32 42 28 52 52 55 78 10 21 -36 22 -33 -28 -117 -24 -42 -32
-99 -15 -110 6 -3 10 -3 11 2 4 54 11 76 35 114 27 43 28 43 35 19 4 -14 7
-69 8 -122 1 -58 5 -98 11 -98 6 0 10 37 10 91 0 68 3 90 13 87 6 -3 14 -17
17 -33 5 -31 30 -47 30 -20 0 16 -28 76 -39 85 -14 10 -49 66 -56 90 -4 13
-14 30 -21 38 -8 7 -14 18 -14 23 0 14 26 11 40 -6 7 -8 16 -15 21 -15 5 0 9
7 9 15 0 8 -5 15 -11 15 -6 0 -17 7 -25 15 -9 8 -27 15 -41 15 -15 0 -35 7
-45 17 -15 13 -18 14 -18 2z"/>
<path d="M1920 902 c0 -5 6 -17 14 -27 11 -16 10 -21 -8 -42 -24 -28 -48 -90
-38 -97 4 -2 16 16 27 40 21 48 40 61 62 42 22 -18 46 -70 36 -77 -29 -20 -55
-76 -59 -129 -5 -60 2 -54 26 23 7 22 21 50 30 62 25 32 30 14 30 -113 0 -57
4 -104 9 -104 13 0 25 102 18 146 -8 45 14 41 27 -4 10 -36 26 -43 26 -12 0
21 -15 52 -41 85 -35 44 -89 155 -75 155 7 0 19 -7 26 -15 14 -17 40 -20 40
-6 0 14 -64 51 -87 51 -12 0 -26 7 -33 15 -13 16 -30 20 -30 7z"/>
</g>
</svg>
